<mxfile host="app.diagrams.net" modified="2022-08-31T11:06:51.026Z" agent="5.0 (Windows NT 10.0; Win64; x64) AppleWebKit/537.36 (KHTML, like Gecko) Chrome/104.0.0.0 Safari/537.36" etag="W91fxWF_IRckvCSwgdGw" version="20.2.7" type="github" pages="2">
  <diagram id="kARNjwCRx0WftAdzJ_6I" name="Page-1">
    <mxGraphModel dx="1422" dy="705" grid="0" gridSize="10" guides="1" tooltips="1" connect="1" arrows="1" fold="1" page="1" pageScale="1" pageWidth="827" pageHeight="1169" math="0" shadow="0">
      <root>
        <mxCell id="0" />
        <mxCell id="1" parent="0" />
        <mxCell id="S6zBt_I9POzKVS3bxHnS-60" value="Diagramme&amp;nbsp; de séquence&amp;nbsp; ajouter Iteration" style="shape=umlFrame;whiteSpace=wrap;html=1;rounded=0;shadow=0;glass=0;sketch=0;fontSize=15;fillColor=none;width=321;height=35;" parent="1" vertex="1">
          <mxGeometry x="12" y="8" width="1180" height="952" as="geometry" />
        </mxCell>
        <mxCell id="S6zBt_I9POzKVS3bxHnS-61" value="ALT" style="shape=umlFrame;whiteSpace=wrap;html=1;width=45;height=30;" parent="1" vertex="1">
          <mxGeometry x="22.5" y="419" width="1149" height="530" as="geometry" />
        </mxCell>
        <mxCell id="S6zBt_I9POzKVS3bxHnS-120" value="ALT" style="shape=umlFrame;whiteSpace=wrap;html=1;width=45;height=30;" parent="1" vertex="1">
          <mxGeometry x="54" y="519.35" width="1107" height="299" as="geometry" />
        </mxCell>
        <mxCell id="S6zBt_I9POzKVS3bxHnS-62" value="&lt;font style=&quot;font-size: 15px;&quot;&gt;alt: formulaire valide&lt;/font&gt;" style="shape=umlFrame;whiteSpace=wrap;html=1;width=162;height=22;" parent="1" vertex="1">
          <mxGeometry x="59" y="306" width="362" height="103" as="geometry" />
        </mxCell>
        <mxCell id="S6zBt_I9POzKVS3bxHnS-63" value=":Iteration&lt;br&gt;Controler" style="shape=umlLifeline;perimeter=lifelinePerimeter;whiteSpace=wrap;html=1;container=1;collapsible=0;recursiveResize=0;outlineConnect=0;rounded=0;shadow=0;glass=0;sketch=0;fillColor=none;fontSize=15;fontColor=#CC6600;strokeColor=#CC6600;" parent="1" vertex="1">
          <mxGeometry x="622" y="65" width="201" height="891" as="geometry" />
        </mxCell>
        <mxCell id="S6zBt_I9POzKVS3bxHnS-64" value="" style="html=1;points=[];perimeter=orthogonalPerimeter;rounded=0;shadow=0;glass=0;sketch=0;fontSize=15;fillColor=none;" parent="S6zBt_I9POzKVS3bxHnS-63" vertex="1">
          <mxGeometry x="95.5" y="401" width="10" height="310" as="geometry" />
        </mxCell>
        <mxCell id="S6zBt_I9POzKVS3bxHnS-65" style="edgeStyle=none;rounded=0;orthogonalLoop=1;jettySize=auto;html=1;fontSize=15;fontColor=#000000;strokeColor=#000000;endArrow=none;endFill=0;dashed=1;exitX=0;exitY=0.504;exitDx=0;exitDy=0;exitPerimeter=0;entryX=1;entryY=0.558;entryDx=0;entryDy=0;entryPerimeter=0;" parent="1" source="S6zBt_I9POzKVS3bxHnS-61" target="S6zBt_I9POzKVS3bxHnS-120" edge="1">
          <mxGeometry relative="1" as="geometry">
            <Array as="points">
              <mxPoint x="238" y="686" />
            </Array>
            <mxPoint x="119.5" y="686" as="sourcePoint" />
          </mxGeometry>
        </mxCell>
        <mxCell id="S6zBt_I9POzKVS3bxHnS-66" value="" style="shape=umlLifeline;participant=umlActor;perimeter=lifelinePerimeter;whiteSpace=wrap;html=1;container=1;collapsible=0;recursiveResize=0;verticalAlign=top;spacingTop=36;outlineConnect=0;fillColor=none;size=32;sketch=0;shadow=0;rounded=0;glass=0;" parent="1" vertex="1">
          <mxGeometry x="110" y="65" width="20" height="891" as="geometry" />
        </mxCell>
        <mxCell id="S6zBt_I9POzKVS3bxHnS-67" value="&lt;span style=&quot;color: rgb(0, 0, 0); font-family: Helvetica; font-size: 15px; font-style: normal; font-variant-ligatures: normal; font-variant-caps: normal; font-weight: 400; letter-spacing: normal; orphans: 2; text-align: center; text-indent: 0px; text-transform: none; widows: 2; word-spacing: 0px; -webkit-text-stroke-width: 0px; background-color: rgb(248, 249, 250); text-decoration-thickness: initial; text-decoration-style: initial; text-decoration-color: initial; float: none; display: inline !important;&quot;&gt;Administrateur&lt;/span&gt;" style="text;whiteSpace=wrap;html=1;fontSize=15;" parent="1" vertex="1">
          <mxGeometry x="72" y="91" width="105" height="36" as="geometry" />
        </mxCell>
        <mxCell id="S6zBt_I9POzKVS3bxHnS-68" value=":Iteration&lt;br&gt;Service" style="shape=umlLifeline;perimeter=lifelinePerimeter;whiteSpace=wrap;html=1;container=1;collapsible=0;recursiveResize=0;outlineConnect=0;rounded=0;shadow=0;glass=0;sketch=0;fillColor=none;fontSize=15;fontColor=#CC6600;strokeColor=#CC6600;" parent="1" vertex="1">
          <mxGeometry x="899" y="65" width="130" height="891" as="geometry" />
        </mxCell>
        <mxCell id="S6zBt_I9POzKVS3bxHnS-69" value="" style="html=1;points=[];perimeter=orthogonalPerimeter;rounded=0;shadow=0;glass=0;sketch=0;fontSize=15;fillColor=none;" parent="S6zBt_I9POzKVS3bxHnS-68" vertex="1">
          <mxGeometry x="60" y="411" width="10" height="284" as="geometry" />
        </mxCell>
        <mxCell id="S6zBt_I9POzKVS3bxHnS-70" value="" style="shape=umlLifeline;participant=umlEntity;perimeter=lifelinePerimeter;whiteSpace=wrap;html=1;container=1;collapsible=0;recursiveResize=0;verticalAlign=top;spacingTop=36;outlineConnect=0;rounded=0;shadow=0;glass=0;sketch=0;fontSize=15;fillColor=none;fontColor=#CC6600;strokeColor=#CC6600;" parent="1" vertex="1">
          <mxGeometry x="1091" y="65" width="65" height="891" as="geometry" />
        </mxCell>
        <mxCell id="S6zBt_I9POzKVS3bxHnS-71" value="" style="html=1;points=[];perimeter=orthogonalPerimeter;rounded=0;shadow=0;glass=0;sketch=0;fontSize=15;fillColor=none;" parent="S6zBt_I9POzKVS3bxHnS-70" vertex="1">
          <mxGeometry x="27.5" y="435" width="10" height="235" as="geometry" />
        </mxCell>
        <mxCell id="S6zBt_I9POzKVS3bxHnS-72" value="&lt;span style=&quot;font-family: Helvetica; font-size: 15px; font-style: normal; font-variant-ligatures: normal; font-variant-caps: normal; font-weight: 400; letter-spacing: normal; orphans: 2; text-indent: 0px; text-transform: none; widows: 2; word-spacing: 0px; -webkit-text-stroke-width: 0px; background-color: rgb(248, 249, 250); text-decoration-thickness: initial; text-decoration-style: initial; text-decoration-color: initial; float: none; display: inline !important;&quot;&gt;Base de donnée&lt;br&gt;Livraison&lt;br&gt;&lt;/span&gt;" style="text;whiteSpace=wrap;html=1;fontSize=15;align=center;fillColor=default;fontColor=#CC6600;" parent="S6zBt_I9POzKVS3bxHnS-70" vertex="1">
          <mxGeometry x="-21" y="47" width="119" height="48" as="geometry" />
        </mxCell>
        <mxCell id="S6zBt_I9POzKVS3bxHnS-73" value="" style="shape=umlLifeline;participant=umlBoundary;perimeter=lifelinePerimeter;whiteSpace=wrap;html=1;container=1;collapsible=0;recursiveResize=0;verticalAlign=top;spacingTop=36;outlineConnect=0;rounded=0;shadow=0;glass=0;sketch=0;fontSize=15;fillColor=none;fontColor=#CC6600;strokeColor=#CC6600;" parent="1" vertex="1">
          <mxGeometry x="273" y="65" width="65" height="891" as="geometry" />
        </mxCell>
        <mxCell id="S6zBt_I9POzKVS3bxHnS-74" value="&lt;span style=&quot;font-family: Helvetica; font-size: 15px; font-style: normal; font-variant-ligatures: normal; font-variant-caps: normal; font-weight: 400; letter-spacing: normal; orphans: 2; text-indent: 0px; text-transform: none; widows: 2; word-spacing: 0px; -webkit-text-stroke-width: 0px; background-color: rgb(248, 249, 250); text-decoration-thickness: initial; text-decoration-style: initial; text-decoration-color: initial; float: none; display: inline !important;&quot;&gt;Interface IHM&lt;/span&gt;&lt;br style=&quot;font-family: Helvetica; font-size: 15px; font-style: normal; font-variant-ligatures: normal; font-variant-caps: normal; font-weight: 400; letter-spacing: normal; orphans: 2; text-indent: 0px; text-transform: none; widows: 2; word-spacing: 0px; -webkit-text-stroke-width: 0px; background-color: rgb(248, 249, 250); text-decoration-thickness: initial; text-decoration-style: initial; text-decoration-color: initial;&quot;&gt;&lt;span style=&quot;font-family: Helvetica; font-size: 15px; font-style: normal; font-variant-ligatures: normal; font-variant-caps: normal; font-weight: 400; letter-spacing: normal; orphans: 2; text-indent: 0px; text-transform: none; widows: 2; word-spacing: 0px; -webkit-text-stroke-width: 0px; background-color: rgb(248, 249, 250); text-decoration-thickness: initial; text-decoration-style: initial; text-decoration-color: initial; float: none; display: inline !important;&quot;&gt;Iteration&lt;/span&gt;" style="text;whiteSpace=wrap;html=1;fontSize=15;align=center;fillColor=default;fontColor=#CC6600;" parent="S6zBt_I9POzKVS3bxHnS-73" vertex="1">
          <mxGeometry x="-24" y="44" width="122" height="45" as="geometry" />
        </mxCell>
        <mxCell id="S6zBt_I9POzKVS3bxHnS-75" value="" style="html=1;points=[];perimeter=orthogonalPerimeter;rounded=0;shadow=0;glass=0;sketch=0;fontSize=15;fillColor=none;" parent="S6zBt_I9POzKVS3bxHnS-73" vertex="1">
          <mxGeometry x="27.5" y="143" width="10" height="737" as="geometry" />
        </mxCell>
        <mxCell id="S6zBt_I9POzKVS3bxHnS-76" value="valider&lt;br&gt;formulaire" style="edgeStyle=orthogonalEdgeStyle;html=1;align=left;spacingLeft=2;endArrow=block;rounded=0;fontSize=15;" parent="S6zBt_I9POzKVS3bxHnS-73" source="S6zBt_I9POzKVS3bxHnS-75" target="S6zBt_I9POzKVS3bxHnS-75" edge="1">
          <mxGeometry relative="1" as="geometry">
            <mxPoint x="36" y="306" as="sourcePoint" />
            <Array as="points">
              <mxPoint x="67" y="306" />
              <mxPoint x="67" y="334" />
            </Array>
            <mxPoint x="36" y="334" as="targetPoint" />
          </mxGeometry>
        </mxCell>
        <mxCell id="S6zBt_I9POzKVS3bxHnS-77" value="" style="edgeStyle=elbowEdgeStyle;fontSize=12;html=1;endArrow=blockThin;endFill=1;rounded=0;" parent="1" source="S6zBt_I9POzKVS3bxHnS-66" target="S6zBt_I9POzKVS3bxHnS-75" edge="1">
          <mxGeometry width="160" relative="1" as="geometry">
            <mxPoint x="628" y="319" as="sourcePoint" />
            <mxPoint x="788" y="319" as="targetPoint" />
            <Array as="points">
              <mxPoint x="190" y="237" />
              <mxPoint x="171" y="210" />
            </Array>
          </mxGeometry>
        </mxCell>
        <mxCell id="S6zBt_I9POzKVS3bxHnS-78" value="demander ajouter accord" style="edgeLabel;html=1;align=center;verticalAlign=middle;resizable=0;points=[];fontSize=15;" parent="S6zBt_I9POzKVS3bxHnS-77" vertex="1" connectable="0">
          <mxGeometry x="-0.3952" relative="1" as="geometry">
            <mxPoint x="30" y="-12" as="offset" />
          </mxGeometry>
        </mxCell>
        <mxCell id="S6zBt_I9POzKVS3bxHnS-79" value="" style="edgeStyle=elbowEdgeStyle;fontSize=12;html=1;endArrow=blockThin;endFill=1;rounded=0;" parent="1" source="S6zBt_I9POzKVS3bxHnS-64" target="S6zBt_I9POzKVS3bxHnS-69" edge="1">
          <mxGeometry width="160" relative="1" as="geometry">
            <mxPoint x="394" y="333" as="sourcePoint" />
            <mxPoint x="554" y="333" as="targetPoint" />
            <Array as="points">
              <mxPoint x="778" y="495" />
              <mxPoint x="753" y="286" />
              <mxPoint x="602" y="271" />
              <mxPoint x="527" y="300" />
            </Array>
          </mxGeometry>
        </mxCell>
        <mxCell id="S6zBt_I9POzKVS3bxHnS-80" value="createIteration(iteration)" style="edgeLabel;html=1;align=center;verticalAlign=middle;resizable=0;points=[];fontSize=15;" parent="S6zBt_I9POzKVS3bxHnS-79" vertex="1" connectable="0">
          <mxGeometry x="0.1239" relative="1" as="geometry">
            <mxPoint x="-14" y="-14" as="offset" />
          </mxGeometry>
        </mxCell>
        <mxCell id="S6zBt_I9POzKVS3bxHnS-81" value="" style="edgeStyle=elbowEdgeStyle;fontSize=12;html=1;endArrow=blockThin;endFill=1;rounded=0;" parent="1" source="S6zBt_I9POzKVS3bxHnS-69" target="S6zBt_I9POzKVS3bxHnS-71" edge="1">
          <mxGeometry width="160" relative="1" as="geometry">
            <mxPoint x="474" y="333" as="sourcePoint" />
            <mxPoint x="634" y="333" as="targetPoint" />
            <Array as="points">
              <mxPoint x="1060" y="509" />
              <mxPoint x="969" y="520" />
              <mxPoint x="766" y="296" />
            </Array>
          </mxGeometry>
        </mxCell>
        <mxCell id="S6zBt_I9POzKVS3bxHnS-82" value="save(iteration)" style="edgeLabel;html=1;align=center;verticalAlign=middle;resizable=0;points=[];fontSize=15;" parent="S6zBt_I9POzKVS3bxHnS-81" vertex="1" connectable="0">
          <mxGeometry x="-0.3561" y="2" relative="1" as="geometry">
            <mxPoint x="23" y="-9" as="offset" />
          </mxGeometry>
        </mxCell>
        <mxCell id="S6zBt_I9POzKVS3bxHnS-83" value="&lt;font color=&quot;#009900&quot;&gt;iteration&lt;/font&gt;" style="html=1;verticalAlign=bottom;endArrow=open;dashed=1;endSize=8;rounded=0;fontSize=15;strokeColor=#009900;" parent="1" source="S6zBt_I9POzKVS3bxHnS-71" target="S6zBt_I9POzKVS3bxHnS-69" edge="1">
          <mxGeometry relative="1" as="geometry">
            <mxPoint x="806" y="320" as="sourcePoint" />
            <mxPoint x="668" y="320" as="targetPoint" />
            <Array as="points">
              <mxPoint x="1025" y="548" />
            </Array>
          </mxGeometry>
        </mxCell>
        <mxCell id="S6zBt_I9POzKVS3bxHnS-84" value="&lt;span style=&quot;color: rgb(0, 153, 0);&quot;&gt;iteration&lt;/span&gt;" style="html=1;verticalAlign=bottom;endArrow=open;dashed=1;endSize=8;rounded=0;fontSize=15;strokeColor=#009900;" parent="1" source="S6zBt_I9POzKVS3bxHnS-69" target="S6zBt_I9POzKVS3bxHnS-64" edge="1">
          <mxGeometry relative="1" as="geometry">
            <mxPoint x="658" y="325" as="sourcePoint" />
            <mxPoint x="477" y="325" as="targetPoint" />
            <Array as="points">
              <mxPoint x="895" y="567" />
            </Array>
          </mxGeometry>
        </mxCell>
        <mxCell id="S6zBt_I9POzKVS3bxHnS-85" value="&amp;lt;&amp;lt;component&amp;gt;&amp;gt;&lt;br&gt;Iteration" style="shape=umlLifeline;perimeter=lifelinePerimeter;whiteSpace=wrap;html=1;container=1;collapsible=0;recursiveResize=0;outlineConnect=0;rounded=0;shadow=0;glass=0;sketch=0;fillColor=none;fontSize=15;fontColor=#CC6600;strokeColor=#CC6600;" parent="1" vertex="1">
          <mxGeometry x="440" y="65" width="160" height="891" as="geometry" />
        </mxCell>
        <mxCell id="S6zBt_I9POzKVS3bxHnS-86" value="" style="html=1;points=[];perimeter=orthogonalPerimeter;fontSize=15;fillColor=none;rounded=0;shadow=0;glass=0;sketch=0;" parent="S6zBt_I9POzKVS3bxHnS-85" vertex="1">
          <mxGeometry x="75.5" y="165" width="9" height="66" as="geometry" />
        </mxCell>
        <mxCell id="S6zBt_I9POzKVS3bxHnS-87" value="" style="html=1;points=[];perimeter=orthogonalPerimeter;fontSize=15;fillColor=none;rounded=0;shadow=0;glass=0;sketch=0;" parent="S6zBt_I9POzKVS3bxHnS-85" vertex="1">
          <mxGeometry x="75" y="396" width="10" height="470" as="geometry" />
        </mxCell>
        <mxCell id="S6zBt_I9POzKVS3bxHnS-88" value="" style="fontSize=12;html=1;endArrow=blockThin;endFill=1;rounded=0;" parent="1" source="S6zBt_I9POzKVS3bxHnS-75" target="S6zBt_I9POzKVS3bxHnS-86" edge="1">
          <mxGeometry width="160" relative="1" as="geometry">
            <mxPoint x="294" y="256" as="sourcePoint" />
            <mxPoint x="599" y="366" as="targetPoint" />
            <Array as="points">
              <mxPoint x="382" y="238" />
            </Array>
          </mxGeometry>
        </mxCell>
        <mxCell id="S6zBt_I9POzKVS3bxHnS-89" value="formulaire()" style="edgeLabel;html=1;align=center;verticalAlign=middle;resizable=0;points=[];fontSize=15;" parent="S6zBt_I9POzKVS3bxHnS-88" vertex="1" connectable="0">
          <mxGeometry x="-0.0064" y="-3" relative="1" as="geometry">
            <mxPoint x="-3" y="-16" as="offset" />
          </mxGeometry>
        </mxCell>
        <mxCell id="S6zBt_I9POzKVS3bxHnS-90" value="&lt;font style=&quot;font-size: 15px;&quot;&gt;formulaire&lt;/font&gt;" style="html=1;verticalAlign=bottom;endArrow=open;dashed=1;endSize=8;rounded=0;" parent="1" source="S6zBt_I9POzKVS3bxHnS-86" target="S6zBt_I9POzKVS3bxHnS-75" edge="1">
          <mxGeometry relative="1" as="geometry">
            <mxPoint x="438" y="323" as="sourcePoint" />
            <mxPoint x="358" y="323" as="targetPoint" />
            <Array as="points">
              <mxPoint x="411" y="280" />
            </Array>
          </mxGeometry>
        </mxCell>
        <mxCell id="S6zBt_I9POzKVS3bxHnS-91" value="&lt;font style=&quot;font-size: 15px;&quot;&gt;formulaire&lt;/font&gt;" style="html=1;verticalAlign=bottom;endArrow=open;dashed=1;endSize=8;rounded=0;" parent="1" edge="1">
          <mxGeometry relative="1" as="geometry">
            <mxPoint x="300.5" y="298" as="sourcePoint" />
            <mxPoint x="119.66666666666674" y="298" as="targetPoint" />
            <Array as="points">
              <mxPoint x="253" y="298" />
            </Array>
          </mxGeometry>
        </mxCell>
        <mxCell id="S6zBt_I9POzKVS3bxHnS-92" value="" style="fontSize=12;html=1;endArrow=blockThin;endFill=1;rounded=0;" parent="1" source="S6zBt_I9POzKVS3bxHnS-66" target="S6zBt_I9POzKVS3bxHnS-75" edge="1">
          <mxGeometry width="160" relative="1" as="geometry">
            <mxPoint x="338" y="365" as="sourcePoint" />
            <mxPoint x="498" y="365" as="targetPoint" />
            <Array as="points">
              <mxPoint x="255" y="354" />
            </Array>
          </mxGeometry>
        </mxCell>
        <mxCell id="S6zBt_I9POzKVS3bxHnS-93" value="remplir formulaire" style="edgeLabel;html=1;align=center;verticalAlign=middle;resizable=0;points=[];fontSize=15;" parent="S6zBt_I9POzKVS3bxHnS-92" vertex="1" connectable="0">
          <mxGeometry x="0.1281" y="-4" relative="1" as="geometry">
            <mxPoint x="-3" y="-16" as="offset" />
          </mxGeometry>
        </mxCell>
        <mxCell id="S6zBt_I9POzKVS3bxHnS-94" value="" style="fontSize=12;html=1;endArrow=blockThin;endFill=1;rounded=0;" parent="1" target="S6zBt_I9POzKVS3bxHnS-87" edge="1">
          <mxGeometry width="160" relative="1" as="geometry">
            <mxPoint x="310.5" y="471" as="sourcePoint" />
            <mxPoint x="622" y="374" as="targetPoint" />
            <Array as="points">
              <mxPoint x="389" y="471" />
            </Array>
          </mxGeometry>
        </mxCell>
        <mxCell id="S6zBt_I9POzKVS3bxHnS-95" value="save()" style="edgeLabel;html=1;align=center;verticalAlign=middle;resizable=0;points=[];labelBackgroundColor=none;fontSize=15;" parent="S6zBt_I9POzKVS3bxHnS-94" vertex="1" connectable="0">
          <mxGeometry x="-0.0806" y="1" relative="1" as="geometry">
            <mxPoint x="1" y="-10" as="offset" />
          </mxGeometry>
        </mxCell>
        <mxCell id="S6zBt_I9POzKVS3bxHnS-96" value="" style="fontSize=12;html=1;endArrow=blockThin;endFill=1;rounded=0;" parent="1" source="S6zBt_I9POzKVS3bxHnS-87" target="S6zBt_I9POzKVS3bxHnS-64" edge="1">
          <mxGeometry width="160" relative="1" as="geometry">
            <mxPoint x="518" y="318" as="sourcePoint" />
            <mxPoint x="678" y="318" as="targetPoint" />
            <Array as="points">
              <mxPoint x="525" y="480" />
            </Array>
          </mxGeometry>
        </mxCell>
        <mxCell id="S6zBt_I9POzKVS3bxHnS-97" value="&lt;span style=&quot;font-size: 15px;&quot;&gt;create(iteration)&lt;/span&gt;" style="edgeLabel;html=1;align=center;verticalAlign=middle;resizable=0;points=[];labelBackgroundColor=none;fontSize=15;" parent="S6zBt_I9POzKVS3bxHnS-96" vertex="1" connectable="0">
          <mxGeometry x="0.25" relative="1" as="geometry">
            <mxPoint x="-23" y="-11" as="offset" />
          </mxGeometry>
        </mxCell>
        <mxCell id="S6zBt_I9POzKVS3bxHnS-98" value="&lt;span style=&quot;color: rgb(0, 153, 0);&quot;&gt;iteration&lt;/span&gt;&lt;font color=&quot;#009900&quot;&gt;, statut 200&lt;/font&gt;" style="html=1;verticalAlign=bottom;endArrow=open;dashed=1;endSize=8;rounded=0;fontSize=15;strokeColor=#009900;" parent="1" source="S6zBt_I9POzKVS3bxHnS-64" target="S6zBt_I9POzKVS3bxHnS-87" edge="1">
          <mxGeometry relative="1" as="geometry">
            <mxPoint x="661" y="567" as="sourcePoint" />
            <mxPoint x="409.9999999999998" y="567" as="targetPoint" />
            <Array as="points">
              <mxPoint x="633" y="595" />
            </Array>
          </mxGeometry>
        </mxCell>
        <mxCell id="S6zBt_I9POzKVS3bxHnS-99" value="&lt;font color=&quot;#009900&quot;&gt;Rediriger vers liste&amp;nbsp;&lt;/font&gt;&lt;span style=&quot;color: rgb(0, 153, 0); background-color: rgb(255, 255, 255);&quot;&gt;iterations&lt;/span&gt;&lt;font color=&quot;#009900&quot;&gt;,&lt;br&gt;pop-up vert&lt;br&gt;&lt;/font&gt;" style="html=1;verticalAlign=bottom;endArrow=open;dashed=1;endSize=8;rounded=0;fontSize=15;strokeColor=#009900;labelBackgroundColor=none;" parent="1" source="S6zBt_I9POzKVS3bxHnS-87" edge="1">
          <mxGeometry x="-0.0136" y="-4" relative="1" as="geometry">
            <mxPoint x="673.9999999999998" y="570" as="sourcePoint" />
            <mxPoint x="310.5" y="618" as="targetPoint" />
            <Array as="points">
              <mxPoint x="459" y="618" />
            </Array>
            <mxPoint as="offset" />
          </mxGeometry>
        </mxCell>
        <mxCell id="S6zBt_I9POzKVS3bxHnS-100" value="&lt;font color=&quot;#000000&quot;&gt;liste&amp;nbsp;iterations&lt;/font&gt;" style="html=1;verticalAlign=bottom;endArrow=open;dashed=1;endSize=8;rounded=0;fontSize=15;fontColor=#009900;strokeColor=#000000;" parent="1" edge="1">
          <mxGeometry relative="1" as="geometry">
            <mxPoint x="300.5" y="645" as="sourcePoint" />
            <mxPoint x="119.5" y="645" as="targetPoint" />
            <Array as="points">
              <mxPoint x="274" y="645" />
            </Array>
          </mxGeometry>
        </mxCell>
        <mxCell id="S6zBt_I9POzKVS3bxHnS-101" value="" style="group" parent="1" vertex="1" connectable="0">
          <mxGeometry x="22" y="388" width="1126" height="413" as="geometry" />
        </mxCell>
        <mxCell id="S6zBt_I9POzKVS3bxHnS-102" value="&lt;div style=&quot;text-align: left; font-size: 15px;&quot;&gt;&lt;span style=&quot;background-color: initial; font-size: 15px;&quot;&gt;[It&lt;/span&gt;&lt;span style=&quot;text-align: center; background-color: rgb(255, 255, 255);&quot;&gt;eration&lt;/span&gt;&lt;span style=&quot;background-color: initial; text-align: right; font-size: 15px;&quot;&gt;Valide]&lt;/span&gt;&lt;/div&gt;" style="text;html=1;strokeColor=none;fillColor=none;align=center;verticalAlign=middle;whiteSpace=wrap;rounded=0;fontSize=15;fontColor=#009900;" parent="S6zBt_I9POzKVS3bxHnS-101" vertex="1">
          <mxGeometry x="77.00000000000001" y="136.74308046791919" width="179.48" height="24.354023395958876" as="geometry" />
        </mxCell>
        <mxCell id="S6zBt_I9POzKVS3bxHnS-103" value="[Iteration Invalide]" style="text;html=1;strokeColor=none;fillColor=none;align=center;verticalAlign=middle;whiteSpace=wrap;rounded=0;fontSize=16;fontColor=#FF5521;" parent="S6zBt_I9POzKVS3bxHnS-101" vertex="1">
          <mxGeometry x="103.24" y="311" width="134.76" height="22.6" as="geometry" />
        </mxCell>
        <mxCell id="S6zBt_I9POzKVS3bxHnS-104" value="&lt;font color=&quot;#cc0000&quot;&gt;iteration&lt;/font&gt;" style="html=1;verticalAlign=bottom;endArrow=open;dashed=1;endSize=8;rounded=0;fontSize=15;fontColor=#000000;strokeColor=#CC0000;" parent="1" source="S6zBt_I9POzKVS3bxHnS-71" target="S6zBt_I9POzKVS3bxHnS-69" edge="1">
          <mxGeometry relative="1" as="geometry">
            <mxPoint x="680" y="725" as="sourcePoint" />
            <mxPoint x="600" y="725" as="targetPoint" />
            <Array as="points">
              <mxPoint x="1038" y="715" />
            </Array>
          </mxGeometry>
        </mxCell>
        <mxCell id="S6zBt_I9POzKVS3bxHnS-105" value="&lt;span style=&quot;color: rgb(204, 0, 0);&quot;&gt;iteration&lt;/span&gt;" style="html=1;verticalAlign=bottom;endArrow=open;dashed=1;endSize=8;rounded=0;fontSize=15;fontColor=#000000;strokeColor=#CC0000;" parent="1" source="S6zBt_I9POzKVS3bxHnS-69" target="S6zBt_I9POzKVS3bxHnS-64" edge="1">
          <mxGeometry relative="1" as="geometry">
            <mxPoint x="915" y="755" as="sourcePoint" />
            <mxPoint x="744" y="755" as="targetPoint" />
            <Array as="points">
              <mxPoint x="879" y="743" />
            </Array>
          </mxGeometry>
        </mxCell>
        <mxCell id="S6zBt_I9POzKVS3bxHnS-106" value="&lt;span style=&quot;color: rgb(204, 0, 0);&quot;&gt;iteration&lt;/span&gt;&lt;font color=&quot;#cc0000&quot;&gt;, statut 500&lt;/font&gt;" style="html=1;verticalAlign=bottom;endArrow=open;dashed=1;endSize=8;rounded=0;fontSize=15;fontColor=#000000;strokeColor=#CC0000;" parent="1" source="S6zBt_I9POzKVS3bxHnS-64" target="S6zBt_I9POzKVS3bxHnS-87" edge="1">
          <mxGeometry relative="1" as="geometry">
            <mxPoint x="651" y="752" as="sourcePoint" />
            <mxPoint x="399.9999999999998" y="752" as="targetPoint" />
            <Array as="points">
              <mxPoint x="619" y="760" />
            </Array>
          </mxGeometry>
        </mxCell>
        <mxCell id="S6zBt_I9POzKVS3bxHnS-107" value="&lt;font color=&quot;#cc0000&quot;&gt;Rediriger vers liste&amp;nbsp;&lt;/font&gt;&lt;span style=&quot;color: rgb(204, 0, 0); background-color: rgb(255, 255, 255);&quot;&gt;iterations&lt;/span&gt;&lt;font color=&quot;#cc0000&quot;&gt;,&lt;br&gt;pop-up rouge&lt;/font&gt;" style="html=1;verticalAlign=bottom;endArrow=open;dashed=1;endSize=8;rounded=0;fontSize=15;strokeColor=#CC0000;labelBackgroundColor=none;" parent="1" source="S6zBt_I9POzKVS3bxHnS-87" edge="1">
          <mxGeometry x="-0.0136" y="-4" relative="1" as="geometry">
            <mxPoint x="495" y="760" as="sourcePoint" />
            <mxPoint x="310.5" y="788" as="targetPoint" />
            <Array as="points">
              <mxPoint x="445" y="788" />
            </Array>
            <mxPoint as="offset" />
          </mxGeometry>
        </mxCell>
        <mxCell id="S6zBt_I9POzKVS3bxHnS-108" value="&lt;font color=&quot;#000000&quot;&gt;liste&amp;nbsp;&lt;/font&gt;&lt;span style=&quot;color: rgb(0, 0, 0);&quot;&gt;iterations&lt;/span&gt;" style="html=1;verticalAlign=bottom;endArrow=open;dashed=1;endSize=8;rounded=0;fontSize=15;fontColor=#009900;strokeColor=#000000;" parent="1" edge="1">
          <mxGeometry relative="1" as="geometry">
            <mxPoint x="300.5" y="803" as="sourcePoint" />
            <mxPoint x="119.5" y="803" as="targetPoint" />
            <Array as="points">
              <mxPoint x="231" y="803" />
            </Array>
          </mxGeometry>
        </mxCell>
        <mxCell id="S6zBt_I9POzKVS3bxHnS-109" value="&lt;div style=&quot;text-align: left;&quot;&gt;&lt;span style=&quot;color: rgb(0, 0, 0); text-align: center; background-color: rgb(255, 255, 255);&quot;&gt;&lt;font style=&quot;font-size: 15px;&quot;&gt;[cliquer sauvegarder]&lt;/font&gt;&lt;/span&gt;&lt;br&gt;&lt;/div&gt;" style="text;html=1;strokeColor=none;fillColor=none;align=center;verticalAlign=bottom;whiteSpace=wrap;rounded=0;fontSize=15;fontColor=#009900;" parent="1" vertex="1">
          <mxGeometry x="126.87475647091566" y="420" width="148.4887280823824" height="24.35" as="geometry" />
        </mxCell>
        <mxCell id="S6zBt_I9POzKVS3bxHnS-110" value="&lt;div style=&quot;text-align: left;&quot;&gt;&lt;span style=&quot;color: rgb(0, 0, 0); text-align: center; background-color: rgb(255, 255, 255);&quot;&gt;&lt;font style=&quot;font-size: 15px;&quot;&gt;[cliquer annuler]&lt;/font&gt;&lt;/span&gt;&lt;br&gt;&lt;/div&gt;" style="text;html=1;strokeColor=none;fillColor=none;align=center;verticalAlign=bottom;whiteSpace=wrap;rounded=0;fontSize=15;fontColor=#009900;" parent="1" vertex="1">
          <mxGeometry x="126.87475647091566" y="832" width="148.4887280823824" height="24.35" as="geometry" />
        </mxCell>
        <mxCell id="S6zBt_I9POzKVS3bxHnS-111" value="" style="edgeStyle=elbowEdgeStyle;fontSize=12;html=1;endArrow=blockThin;endFill=1;rounded=0;fontColor=#000000;" parent="1" edge="1">
          <mxGeometry width="160" relative="1" as="geometry">
            <mxPoint x="120.02380952380963" y="465" as="sourcePoint" />
            <mxPoint x="300.5" y="465" as="targetPoint" />
            <Array as="points">
              <mxPoint x="283" y="465" />
              <mxPoint x="303" y="492" />
              <mxPoint x="224.82" y="475" />
            </Array>
          </mxGeometry>
        </mxCell>
        <mxCell id="S6zBt_I9POzKVS3bxHnS-112" value="cliquer sauvegarder" style="edgeLabel;html=1;align=center;verticalAlign=middle;resizable=0;points=[];fontSize=15;fontColor=#000000;" parent="S6zBt_I9POzKVS3bxHnS-111" vertex="1" connectable="0">
          <mxGeometry x="-0.0222" y="2" relative="1" as="geometry">
            <mxPoint y="-9" as="offset" />
          </mxGeometry>
        </mxCell>
        <mxCell id="S6zBt_I9POzKVS3bxHnS-113" style="edgeStyle=none;rounded=0;orthogonalLoop=1;jettySize=auto;html=1;fontSize=15;fontColor=#000000;strokeColor=#000000;endArrow=none;endFill=0;dashed=1;entryX=1;entryY=0.789;entryDx=0;entryDy=0;entryPerimeter=0;exitX=-0.001;exitY=0.782;exitDx=0;exitDy=0;exitPerimeter=0;" parent="1" source="S6zBt_I9POzKVS3bxHnS-61" target="S6zBt_I9POzKVS3bxHnS-61" edge="1">
          <mxGeometry relative="1" as="geometry">
            <Array as="points">
              <mxPoint x="238" y="833" />
            </Array>
            <mxPoint x="118.96153846153857" y="833.0000000000002" as="sourcePoint" />
            <mxPoint x="1118.5" y="833" as="targetPoint" />
          </mxGeometry>
        </mxCell>
        <mxCell id="S6zBt_I9POzKVS3bxHnS-114" value="" style="edgeStyle=elbowEdgeStyle;fontSize=12;html=1;endArrow=blockThin;endFill=1;rounded=0;fontColor=#000000;" parent="1" target="S6zBt_I9POzKVS3bxHnS-75" edge="1">
          <mxGeometry width="160" relative="1" as="geometry">
            <mxPoint x="119.99666666666667" y="883" as="sourcePoint" />
            <mxPoint x="370.33" y="883" as="targetPoint" />
            <Array as="points">
              <mxPoint x="303" y="889" />
              <mxPoint x="225.51000000000002" y="868" />
            </Array>
          </mxGeometry>
        </mxCell>
        <mxCell id="S6zBt_I9POzKVS3bxHnS-115" value="cliquer annuler" style="edgeLabel;html=1;align=center;verticalAlign=middle;resizable=0;points=[];fontSize=15;fontColor=#000000;" parent="S6zBt_I9POzKVS3bxHnS-114" vertex="1" connectable="0">
          <mxGeometry x="-0.0222" y="2" relative="1" as="geometry">
            <mxPoint y="-9" as="offset" />
          </mxGeometry>
        </mxCell>
        <mxCell id="S6zBt_I9POzKVS3bxHnS-116" value="" style="edgeStyle=elbowEdgeStyle;fontSize=12;html=1;endArrow=blockThin;endFill=1;rounded=0;fontColor=#000000;" parent="1" source="S6zBt_I9POzKVS3bxHnS-75" target="S6zBt_I9POzKVS3bxHnS-87" edge="1">
          <mxGeometry width="160" relative="1" as="geometry">
            <mxPoint x="313" y="851" as="sourcePoint" />
            <mxPoint x="446.22696910659624" y="851" as="targetPoint" />
            <Array as="points">
              <mxPoint x="456" y="897" />
              <mxPoint x="377.5" y="851" />
            </Array>
          </mxGeometry>
        </mxCell>
        <mxCell id="S6zBt_I9POzKVS3bxHnS-117" value="previousState()" style="edgeLabel;html=1;align=center;verticalAlign=middle;resizable=0;points=[];fontSize=15;fontColor=#000000;" parent="S6zBt_I9POzKVS3bxHnS-116" vertex="1" connectable="0">
          <mxGeometry x="-0.2905" y="-1" relative="1" as="geometry">
            <mxPoint x="31" y="-13" as="offset" />
          </mxGeometry>
        </mxCell>
        <mxCell id="S6zBt_I9POzKVS3bxHnS-118" value="list iterations" style="html=1;verticalAlign=bottom;endArrow=open;dashed=1;endSize=8;rounded=0;fontSize=15;fontColor=#000000;" parent="1" source="S6zBt_I9POzKVS3bxHnS-75" target="S6zBt_I9POzKVS3bxHnS-66" edge="1">
          <mxGeometry relative="1" as="geometry">
            <mxPoint x="283.33" y="935" as="sourcePoint" />
            <mxPoint x="32.99666666666663" y="935" as="targetPoint" />
            <Array as="points">
              <mxPoint x="167.82999999999998" y="935" />
            </Array>
          </mxGeometry>
        </mxCell>
        <mxCell id="S6zBt_I9POzKVS3bxHnS-119" value="revenir en arriere&amp;nbsp;" style="html=1;verticalAlign=bottom;endArrow=open;dashed=1;endSize=8;rounded=0;fontSize=15;fontColor=#000000;" parent="1" source="S6zBt_I9POzKVS3bxHnS-87" target="S6zBt_I9POzKVS3bxHnS-75" edge="1">
          <mxGeometry relative="1" as="geometry">
            <mxPoint x="480.22696910659624" y="926" as="sourcePoint" />
            <mxPoint x="347" y="926" as="targetPoint" />
            <Array as="points">
              <mxPoint x="434.5" y="926" />
            </Array>
          </mxGeometry>
        </mxCell>
      </root>
    </mxGraphModel>
  </diagram>
  <diagram id="KJ37iikd8dADutUCNcel" name="Page-2">
    <mxGraphModel dx="2844" dy="1410" grid="0" gridSize="10" guides="1" tooltips="1" connect="1" arrows="1" fold="1" page="1" pageScale="1" pageWidth="827" pageHeight="1169" math="0" shadow="0">
      <root>
        <mxCell id="0" />
        <mxCell id="1" parent="0" />
        <mxCell id="XjajVI_ga6uDvfXqqqiE-1" value="Diagramme&amp;nbsp; de séquence&amp;nbsp;&amp;nbsp;&lt;span style=&quot;font-size: 11.5pt; line-height: 150%; font-family: Helvetica, sans-serif; background: white;&quot;&gt;supprimer&amp;nbsp;&lt;/span&gt;tache" style="shape=umlFrame;whiteSpace=wrap;html=1;rounded=0;shadow=0;glass=0;sketch=0;fontSize=15;fillColor=none;width=428;height=26;" parent="1" vertex="1">
          <mxGeometry x="57" y="23.36" width="1574" height="890.28" as="geometry" />
        </mxCell>
        <mxCell id="XjajVI_ga6uDvfXqqqiE-2" value="" style="group" parent="1" vertex="1" connectable="0">
          <mxGeometry x="3" y="33" width="1866" height="873" as="geometry" />
        </mxCell>
        <mxCell id="XjajVI_ga6uDvfXqqqiE-3" value="ALT" style="shape=umlFrame;whiteSpace=wrap;html=1;width=45;height=30;" parent="XjajVI_ga6uDvfXqqqiE-2" vertex="1">
          <mxGeometry x="83.3" y="264.1" width="1516.7" height="570.9" as="geometry" />
        </mxCell>
        <mxCell id="XjajVI_ga6uDvfXqqqiE-4" value="&lt;div style=&quot;text-align: left; font-size: 15px;&quot;&gt;&lt;/div&gt;&lt;span style=&quot;text-align: right;&quot;&gt;&lt;div style=&quot;text-align: left;&quot;&gt;&lt;span style=&quot;background-color: initial;&quot;&gt;[Suppression Confirmé&lt;/span&gt;&lt;span style=&quot;background-color: initial;&quot;&gt;]&lt;/span&gt;&lt;/div&gt;&lt;/span&gt;" style="text;html=1;strokeColor=none;fillColor=none;align=center;verticalAlign=middle;whiteSpace=wrap;rounded=0;fontSize=15;fontColor=#CC0000;" parent="XjajVI_ga6uDvfXqqqiE-2" vertex="1">
          <mxGeometry x="145.74" y="259.9969369307677" width="200.22" height="57.81129988358557" as="geometry" />
        </mxCell>
        <mxCell id="XjajVI_ga6uDvfXqqqiE-5" value="&lt;font color=&quot;#000000&quot; style=&quot;font-size: 15px;&quot;&gt;[&lt;span style=&quot;font-size: 15px; text-align: right;&quot;&gt;Suppression&amp;nbsp;&lt;/span&gt;non Confirmé]&lt;/font&gt;" style="text;html=1;strokeColor=none;fillColor=none;align=center;verticalAlign=middle;whiteSpace=wrap;rounded=0;fontSize=15;fontColor=#FF5521;" parent="XjajVI_ga6uDvfXqqqiE-2" vertex="1">
          <mxGeometry x="140.00084507042254" y="658.9879627473807" width="211.6985915492958" height="46.676380072587826" as="geometry" />
        </mxCell>
        <mxCell id="XjajVI_ga6uDvfXqqqiE-6" value="" style="html=1;points=[];perimeter=orthogonalPerimeter;fillColor=none;" parent="XjajVI_ga6uDvfXqqqiE-2" vertex="1">
          <mxGeometry x="1019" y="337" width="10" height="284" as="geometry" />
        </mxCell>
        <mxCell id="XjajVI_ga6uDvfXqqqiE-7" value="" style="html=1;points=[];perimeter=orthogonalPerimeter;rounded=0;shadow=0;glass=0;sketch=0;fontSize=15;fillColor=none;" parent="XjajVI_ga6uDvfXqqqiE-2" vertex="1">
          <mxGeometry x="1019" y="730" width="10" height="61" as="geometry" />
        </mxCell>
        <mxCell id="XjajVI_ga6uDvfXqqqiE-8" value="ALT" style="shape=umlFrame;whiteSpace=wrap;html=1;fontSize=15;fontColor=#000000;fillColor=none;" parent="1" vertex="1">
          <mxGeometry x="133" y="437" width="1453" height="225" as="geometry" />
        </mxCell>
        <mxCell id="XjajVI_ga6uDvfXqqqiE-9" value=":Task&lt;br&gt;Controler" style="shape=umlLifeline;perimeter=lifelinePerimeter;whiteSpace=wrap;html=1;container=1;collapsible=0;recursiveResize=0;outlineConnect=0;rounded=0;shadow=0;glass=0;sketch=0;fillColor=none;fontSize=15;fontColor=default;strokeColor=default;" parent="1" vertex="1">
          <mxGeometry x="1204" y="65" width="201" height="830" as="geometry" />
        </mxCell>
        <mxCell id="XjajVI_ga6uDvfXqqqiE-10" value="" style="html=1;points=[];perimeter=orthogonalPerimeter;rounded=0;shadow=0;glass=0;sketch=0;fontSize=15;fillColor=none;" parent="XjajVI_ga6uDvfXqqqiE-9" vertex="1">
          <mxGeometry x="95.5" y="313" width="10" height="255" as="geometry" />
        </mxCell>
        <mxCell id="XjajVI_ga6uDvfXqqqiE-11" style="rounded=0;orthogonalLoop=1;jettySize=auto;html=1;fontSize=15;fontColor=#000000;strokeColor=#000000;endArrow=none;endFill=0;dashed=1;" parent="1" source="XjajVI_ga6uDvfXqqqiE-12" edge="1">
          <mxGeometry relative="1" as="geometry">
            <Array as="points">
              <mxPoint x="1163" y="563" />
            </Array>
            <mxPoint x="1586" y="564" as="targetPoint" />
          </mxGeometry>
        </mxCell>
        <mxCell id="XjajVI_ga6uDvfXqqqiE-12" value="" style="shape=umlLifeline;participant=umlActor;perimeter=lifelinePerimeter;whiteSpace=wrap;html=1;container=1;collapsible=0;recursiveResize=0;verticalAlign=top;spacingTop=36;outlineConnect=0;fillColor=none;size=32;sketch=0;shadow=0;rounded=0;glass=0;" parent="1" vertex="1">
          <mxGeometry x="136" y="65" width="20" height="830" as="geometry" />
        </mxCell>
        <mxCell id="XjajVI_ga6uDvfXqqqiE-13" value="&lt;span style=&quot;color: rgb(0, 0, 0); font-family: Helvetica; font-size: 15px; font-style: normal; font-variant-ligatures: normal; font-variant-caps: normal; font-weight: 400; letter-spacing: normal; orphans: 2; text-align: center; text-indent: 0px; text-transform: none; widows: 2; word-spacing: 0px; -webkit-text-stroke-width: 0px; background-color: rgb(248, 249, 250); text-decoration-thickness: initial; text-decoration-style: initial; text-decoration-color: initial; float: none; display: inline !important;&quot;&gt;Administrateur&lt;/span&gt;" style="text;whiteSpace=wrap;html=1;fontSize=15;" parent="1" vertex="1">
          <mxGeometry x="98" y="91" width="105" height="36" as="geometry" />
        </mxCell>
        <mxCell id="XjajVI_ga6uDvfXqqqiE-16" value="" style="shape=umlLifeline;participant=umlEntity;perimeter=lifelinePerimeter;whiteSpace=wrap;html=1;container=1;collapsible=0;recursiveResize=0;verticalAlign=top;spacingTop=36;outlineConnect=0;rounded=0;shadow=0;glass=0;sketch=0;fontSize=15;fillColor=none;fontColor=default;strokeColor=default;" parent="1" vertex="1">
          <mxGeometry x="1523" y="65" width="65" height="830" as="geometry" />
        </mxCell>
        <mxCell id="XjajVI_ga6uDvfXqqqiE-17" value="" style="html=1;points=[];perimeter=orthogonalPerimeter;rounded=0;shadow=0;glass=0;sketch=0;fontSize=15;fillColor=none;" parent="XjajVI_ga6uDvfXqqqiE-16" vertex="1">
          <mxGeometry x="27.5" y="332" width="10" height="210" as="geometry" />
        </mxCell>
        <mxCell id="XjajVI_ga6uDvfXqqqiE-18" value="&lt;span style=&quot;font-family: Helvetica; font-size: 15px; font-style: normal; font-variant-ligatures: normal; font-variant-caps: normal; font-weight: 400; letter-spacing: normal; orphans: 2; text-indent: 0px; text-transform: none; widows: 2; word-spacing: 0px; -webkit-text-stroke-width: 0px; background-color: rgb(248, 249, 250); text-decoration-thickness: initial; text-decoration-style: initial; text-decoration-color: initial; float: none; display: inline !important;&quot;&gt;Base de donnée&lt;br&gt;Livraison&lt;br&gt;&lt;/span&gt;" style="text;whiteSpace=wrap;html=1;fontSize=15;align=center;fillColor=default;fontColor=default;" parent="XjajVI_ga6uDvfXqqqiE-16" vertex="1">
          <mxGeometry x="-21" y="47" width="119" height="48" as="geometry" />
        </mxCell>
        <mxCell id="XjajVI_ga6uDvfXqqqiE-19" value="" style="shape=umlLifeline;participant=umlBoundary;perimeter=lifelinePerimeter;whiteSpace=wrap;html=1;container=1;collapsible=0;recursiveResize=0;verticalAlign=top;spacingTop=36;outlineConnect=0;rounded=0;shadow=0;glass=0;sketch=0;fontSize=15;fillColor=none;fontColor=#CC6600;strokeColor=default;" parent="1" vertex="1">
          <mxGeometry x="322" y="65" width="65" height="830" as="geometry" />
        </mxCell>
        <mxCell id="XjajVI_ga6uDvfXqqqiE-20" value="&lt;span style=&quot;font-family: Helvetica; font-size: 15px; font-style: normal; font-variant-ligatures: normal; font-variant-caps: normal; font-weight: 400; letter-spacing: normal; orphans: 2; text-indent: 0px; text-transform: none; widows: 2; word-spacing: 0px; -webkit-text-stroke-width: 0px; background-color: rgb(248, 249, 250); text-decoration-thickness: initial; text-decoration-style: initial; text-decoration-color: initial; float: none; display: inline !important;&quot;&gt;Interface IHM&lt;/span&gt;&lt;br style=&quot;font-family: Helvetica; font-size: 15px; font-style: normal; font-variant-ligatures: normal; font-variant-caps: normal; font-weight: 400; letter-spacing: normal; orphans: 2; text-indent: 0px; text-transform: none; widows: 2; word-spacing: 0px; -webkit-text-stroke-width: 0px; background-color: rgb(248, 249, 250); text-decoration-thickness: initial; text-decoration-style: initial; text-decoration-color: initial;&quot;&gt;&lt;span style=&quot;font-family: Helvetica; font-size: 15px; font-style: normal; font-variant-ligatures: normal; font-variant-caps: normal; font-weight: 400; letter-spacing: normal; orphans: 2; text-indent: 0px; text-transform: none; widows: 2; word-spacing: 0px; -webkit-text-stroke-width: 0px; background-color: rgb(248, 249, 250); text-decoration-thickness: initial; text-decoration-style: initial; text-decoration-color: initial; float: none; display: inline !important;&quot;&gt;Programme&lt;/span&gt;" style="text;whiteSpace=wrap;html=1;fontSize=15;align=center;fillColor=default;fontColor=default;" parent="XjajVI_ga6uDvfXqqqiE-19" vertex="1">
          <mxGeometry x="-24" y="44" width="122" height="45" as="geometry" />
        </mxCell>
        <mxCell id="XjajVI_ga6uDvfXqqqiE-21" value="" style="html=1;points=[];perimeter=orthogonalPerimeter;rounded=0;shadow=0;glass=0;sketch=0;fontSize=15;fillColor=none;" parent="XjajVI_ga6uDvfXqqqiE-19" vertex="1">
          <mxGeometry x="27.5" y="143" width="10" height="650" as="geometry" />
        </mxCell>
        <mxCell id="XjajVI_ga6uDvfXqqqiE-22" value="" style="edgeStyle=elbowEdgeStyle;fontSize=12;html=1;endArrow=blockThin;endFill=1;rounded=0;" parent="1" source="XjajVI_ga6uDvfXqqqiE-12" target="XjajVI_ga6uDvfXqqqiE-21" edge="1">
          <mxGeometry width="160" relative="1" as="geometry">
            <mxPoint x="654" y="319" as="sourcePoint" />
            <mxPoint x="814" y="319" as="targetPoint" />
            <Array as="points">
              <mxPoint x="216" y="237" />
              <mxPoint x="197" y="210" />
            </Array>
          </mxGeometry>
        </mxCell>
        <mxCell id="XjajVI_ga6uDvfXqqqiE-23" value="cliquer sur icone supprimer" style="edgeLabel;html=1;align=center;verticalAlign=middle;resizable=0;points=[];fontSize=15;" parent="XjajVI_ga6uDvfXqqqiE-22" vertex="1" connectable="0">
          <mxGeometry x="-0.3952" relative="1" as="geometry">
            <mxPoint x="38" y="-14" as="offset" />
          </mxGeometry>
        </mxCell>
        <mxCell id="XjajVI_ga6uDvfXqqqiE-26" value="" style="edgeStyle=elbowEdgeStyle;fontSize=12;html=1;endArrow=blockThin;endFill=1;rounded=0;" parent="1" source="XjajVI_ga6uDvfXqqqiE-10" target="XjajVI_ga6uDvfXqqqiE-17" edge="1">
          <mxGeometry width="160" relative="1" as="geometry">
            <mxPoint x="1566" y="430" as="sourcePoint" />
            <mxPoint x="1283" y="311" as="targetPoint" />
            <Array as="points">
              <mxPoint x="1435" y="421" />
              <mxPoint x="1709" y="487" />
              <mxPoint x="1618" y="498" />
              <mxPoint x="1415" y="274" />
            </Array>
          </mxGeometry>
        </mxCell>
        <mxCell id="XjajVI_ga6uDvfXqqqiE-27" value="delete(id)" style="edgeLabel;html=1;align=center;verticalAlign=middle;resizable=0;points=[];fontSize=15;" parent="XjajVI_ga6uDvfXqqqiE-26" vertex="1" connectable="0">
          <mxGeometry x="-0.3561" y="2" relative="1" as="geometry">
            <mxPoint x="23" y="-9" as="offset" />
          </mxGeometry>
        </mxCell>
        <mxCell id="XjajVI_ga6uDvfXqqqiE-29" value="&lt;span style=&quot;color: rgb(0, 153, 0);&quot;&gt;supprimé&lt;/span&gt;" style="html=1;verticalAlign=bottom;endArrow=open;dashed=1;endSize=8;rounded=0;fontSize=15;strokeColor=#009900;" parent="1" source="XjajVI_ga6uDvfXqqqiE-17" target="XjajVI_ga6uDvfXqqqiE-10" edge="1">
          <mxGeometry relative="1" as="geometry">
            <mxPoint x="1556" y="490" as="sourcePoint" />
            <mxPoint x="1126" y="303" as="targetPoint" />
            <Array as="points">
              <mxPoint x="1509" y="490" />
            </Array>
          </mxGeometry>
        </mxCell>
        <mxCell id="XjajVI_ga6uDvfXqqqiE-30" value="&amp;lt;&amp;lt;component&amp;gt;&amp;gt;&lt;br&gt;Programme" style="shape=umlLifeline;perimeter=lifelinePerimeter;whiteSpace=wrap;html=1;container=1;collapsible=0;recursiveResize=0;outlineConnect=0;rounded=0;shadow=0;glass=0;sketch=0;fillColor=none;fontSize=15;fontColor=default;strokeColor=default;" parent="1" vertex="1">
          <mxGeometry x="513" y="65" width="160" height="830" as="geometry" />
        </mxCell>
        <mxCell id="XjajVI_ga6uDvfXqqqiE-31" value="" style="html=1;points=[];perimeter=orthogonalPerimeter;" parent="XjajVI_ga6uDvfXqqqiE-30" vertex="1">
          <mxGeometry x="73" y="165" width="10" height="551" as="geometry" />
        </mxCell>
        <mxCell id="XjajVI_ga6uDvfXqqqiE-32" value="" style="fontSize=12;html=1;endArrow=blockThin;endFill=1;rounded=0;" parent="1" source="XjajVI_ga6uDvfXqqqiE-21" target="XjajVI_ga6uDvfXqqqiE-31" edge="1">
          <mxGeometry width="160" relative="1" as="geometry">
            <mxPoint x="320" y="256" as="sourcePoint" />
            <mxPoint x="625" y="366" as="targetPoint" />
            <Array as="points">
              <mxPoint x="408" y="238" />
            </Array>
          </mxGeometry>
        </mxCell>
        <mxCell id="XjajVI_ga6uDvfXqqqiE-33" value="delete(task)" style="edgeLabel;html=1;align=center;verticalAlign=middle;resizable=0;points=[];fontSize=15;" parent="XjajVI_ga6uDvfXqqqiE-32" vertex="1" connectable="0">
          <mxGeometry x="-0.0064" y="-3" relative="1" as="geometry">
            <mxPoint x="-3" y="-16" as="offset" />
          </mxGeometry>
        </mxCell>
        <mxCell id="XjajVI_ga6uDvfXqqqiE-34" value="&lt;font color=&quot;#009900&quot;&gt;statut 200&lt;/font&gt;" style="html=1;verticalAlign=bottom;endArrow=open;dashed=1;endSize=8;rounded=0;fontSize=15;strokeColor=#009900;" parent="1" source="XjajVI_ga6uDvfXqqqiE-10" target="XjajVI_ga6uDvfXqqqiE-6" edge="1">
          <mxGeometry x="-0.1513" relative="1" as="geometry">
            <mxPoint x="1306.5" y="505" as="sourcePoint" />
            <mxPoint x="601" y="505" as="targetPoint" />
            <Array as="points">
              <mxPoint x="1089" y="505" />
            </Array>
            <mxPoint as="offset" />
          </mxGeometry>
        </mxCell>
        <mxCell id="XjajVI_ga6uDvfXqqqiE-35" value="&lt;font color=&quot;#009900&quot;&gt;fermé modale,pop-up rouge&lt;br&gt;&lt;/font&gt;" style="html=1;verticalAlign=bottom;endArrow=open;dashed=1;endSize=8;rounded=0;fontSize=15;strokeColor=#009900;" parent="1" target="XjajVI_ga6uDvfXqqqiE-21" edge="1">
          <mxGeometry x="0.528" y="-6" relative="1" as="geometry">
            <mxPoint x="806.5" y="536" as="sourcePoint" />
            <mxPoint x="145.63043478260875" y="536" as="targetPoint" />
            <Array as="points">
              <mxPoint x="559" y="536" />
            </Array>
            <mxPoint as="offset" />
          </mxGeometry>
        </mxCell>
        <mxCell id="XjajVI_ga6uDvfXqqqiE-37" value="&lt;span style=&quot;color: rgb(204, 0, 0);&quot;&gt;non supprimé&lt;/span&gt;" style="html=1;verticalAlign=bottom;endArrow=open;dashed=1;endSize=8;rounded=0;fontSize=15;fontColor=#000000;strokeColor=#CC0000;" parent="1" source="XjajVI_ga6uDvfXqqqiE-17" target="XjajVI_ga6uDvfXqqqiE-10" edge="1">
          <mxGeometry relative="1" as="geometry">
            <mxPoint x="1556" y="602" as="sourcePoint" />
            <mxPoint x="1316.5" y="602" as="targetPoint" />
            <Array as="points">
              <mxPoint x="1519" y="602" />
            </Array>
          </mxGeometry>
        </mxCell>
        <mxCell id="XjajVI_ga6uDvfXqqqiE-38" value="&lt;font color=&quot;#cc0000&quot;&gt;statut 500&lt;/font&gt;" style="html=1;verticalAlign=bottom;endArrow=open;dashed=1;endSize=8;rounded=0;fontSize=15;fontColor=#000000;strokeColor=#CC0000;" parent="1" source="XjajVI_ga6uDvfXqqqiE-10" target="XjajVI_ga6uDvfXqqqiE-6" edge="1">
          <mxGeometry relative="1" as="geometry">
            <mxPoint x="1195" y="612" as="sourcePoint" />
            <mxPoint x="1036" y="612" as="targetPoint" />
            <Array as="points">
              <mxPoint x="1179" y="612" />
            </Array>
          </mxGeometry>
        </mxCell>
        <mxCell id="XjajVI_ga6uDvfXqqqiE-39" value="" style="html=1;verticalAlign=bottom;endArrow=open;dashed=1;endSize=8;rounded=0;fontSize=15;strokeColor=#CC0000;" parent="1" source="XjajVI_ga6uDvfXqqqiE-43" target="XjajVI_ga6uDvfXqqqiE-21" edge="1">
          <mxGeometry x="0.4385" y="-6" relative="1" as="geometry">
            <mxPoint x="806.5000000000002" y="639" as="sourcePoint" />
            <mxPoint x="145.75925925925935" y="639" as="targetPoint" />
            <Array as="points">
              <mxPoint x="463" y="639" />
            </Array>
            <mxPoint as="offset" />
          </mxGeometry>
        </mxCell>
        <mxCell id="XjajVI_ga6uDvfXqqqiE-40" value="&lt;span style=&quot;color: rgb(204, 0, 0); font-size: 15px;&quot;&gt;pop-up rouge, message erreur&lt;/span&gt;" style="edgeLabel;html=1;align=center;verticalAlign=middle;resizable=0;points=[];" parent="XjajVI_ga6uDvfXqqqiE-39" vertex="1" connectable="0">
          <mxGeometry x="0.3992" y="-4" relative="1" as="geometry">
            <mxPoint x="-18" y="-13" as="offset" />
          </mxGeometry>
        </mxCell>
        <mxCell id="XjajVI_ga6uDvfXqqqiE-41" value="" style="shape=umlLifeline;participant=umlBoundary;perimeter=lifelinePerimeter;whiteSpace=wrap;html=1;container=1;collapsible=0;recursiveResize=0;verticalAlign=top;spacingTop=36;outlineConnect=0;rounded=0;shadow=0;glass=0;sketch=0;fontSize=15;fillColor=none;fontColor=#CC6600;strokeColor=default;" parent="1" vertex="1">
          <mxGeometry x="779" y="66" width="65" height="830" as="geometry" />
        </mxCell>
        <mxCell id="XjajVI_ga6uDvfXqqqiE-42" value="&lt;span style=&quot;font-family: Helvetica; font-size: 15px; font-style: normal; font-variant-ligatures: normal; font-variant-caps: normal; font-weight: 400; letter-spacing: normal; orphans: 2; text-indent: 0px; text-transform: none; widows: 2; word-spacing: 0px; -webkit-text-stroke-width: 0px; background-color: rgb(248, 249, 250); text-decoration-thickness: initial; text-decoration-style: initial; text-decoration-color: initial; float: none; display: inline !important;&quot;&gt;Interface IHM&lt;/span&gt;&lt;br style=&quot;font-family: Helvetica; font-size: 15px; font-style: normal; font-variant-ligatures: normal; font-variant-caps: normal; font-weight: 400; letter-spacing: normal; orphans: 2; text-indent: 0px; text-transform: none; widows: 2; word-spacing: 0px; -webkit-text-stroke-width: 0px; background-color: rgb(248, 249, 250); text-decoration-thickness: initial; text-decoration-style: initial; text-decoration-color: initial;&quot;&gt;deleteTask" style="text;whiteSpace=wrap;html=1;fontSize=15;align=center;fillColor=default;fontColor=default;" parent="XjajVI_ga6uDvfXqqqiE-41" vertex="1">
          <mxGeometry x="-24" y="44" width="122" height="45" as="geometry" />
        </mxCell>
        <mxCell id="XjajVI_ga6uDvfXqqqiE-43" value="" style="html=1;points=[];perimeter=orthogonalPerimeter;rounded=0;shadow=0;glass=0;sketch=0;fontSize=15;fillColor=none;" parent="XjajVI_ga6uDvfXqqqiE-41" vertex="1">
          <mxGeometry x="27.5" y="143" width="10" height="586" as="geometry" />
        </mxCell>
        <mxCell id="XjajVI_ga6uDvfXqqqiE-44" value="&amp;lt;&amp;lt;component&amp;gt;&amp;gt;&lt;br&gt;DeleteTask" style="shape=umlLifeline;perimeter=lifelinePerimeter;whiteSpace=wrap;html=1;container=1;collapsible=0;recursiveResize=0;outlineConnect=0;rounded=0;shadow=0;glass=0;sketch=0;fillColor=none;fontSize=15;fontColor=default;strokeColor=default;" parent="1" vertex="1">
          <mxGeometry x="902" y="65" width="250" height="830" as="geometry" />
        </mxCell>
        <mxCell id="XjajVI_ga6uDvfXqqqiE-45" value="" style="edgeStyle=elbowEdgeStyle;fontSize=12;html=1;endArrow=blockThin;endFill=1;rounded=0;" parent="1" source="XjajVI_ga6uDvfXqqqiE-31" target="XjajVI_ga6uDvfXqqqiE-43" edge="1">
          <mxGeometry width="160" relative="1" as="geometry">
            <mxPoint x="580" y="230" as="sourcePoint" />
            <mxPoint x="740" y="230" as="targetPoint" />
            <Array as="points">
              <mxPoint x="690" y="246" />
              <mxPoint x="638" y="237" />
            </Array>
          </mxGeometry>
        </mxCell>
        <mxCell id="XjajVI_ga6uDvfXqqqiE-46" value="open(task&lt;span style=&quot;font-size: 15px;&quot;&gt;)&lt;/span&gt;" style="edgeLabel;html=1;align=center;verticalAlign=middle;resizable=0;points=[];fontSize=15;" parent="XjajVI_ga6uDvfXqqqiE-45" vertex="1" connectable="0">
          <mxGeometry x="-0.2599" relative="1" as="geometry">
            <mxPoint x="27" y="-15" as="offset" />
          </mxGeometry>
        </mxCell>
        <mxCell id="XjajVI_ga6uDvfXqqqiE-47" value="modal confirmer suppression" style="html=1;verticalAlign=bottom;endArrow=open;dashed=1;endSize=8;rounded=0;fontSize=15;" parent="1" source="XjajVI_ga6uDvfXqqqiE-43" target="XjajVI_ga6uDvfXqqqiE-12" edge="1">
          <mxGeometry relative="1" as="geometry">
            <mxPoint x="806.5" y="304" as="sourcePoint" />
            <mxPoint x="144.96153846153857" y="304" as="targetPoint" />
            <Array as="points">
              <mxPoint x="591" y="273" />
            </Array>
          </mxGeometry>
        </mxCell>
        <mxCell id="XjajVI_ga6uDvfXqqqiE-48" value="" style="edgeStyle=elbowEdgeStyle;fontSize=12;html=1;endArrow=blockThin;endFill=1;rounded=0;fontColor=#000000;startArrow=none;" parent="1" source="XjajVI_ga6uDvfXqqqiE-1" target="XjajVI_ga6uDvfXqqqiE-43" edge="1">
          <mxGeometry width="160" relative="1" as="geometry">
            <mxPoint x="144.96153846153857" y="366" as="sourcePoint" />
            <mxPoint x="806.5" y="366" as="targetPoint" />
            <Array as="points">
              <mxPoint x="668" y="366" />
            </Array>
          </mxGeometry>
        </mxCell>
        <mxCell id="XjajVI_ga6uDvfXqqqiE-49" value="" style="edgeStyle=elbowEdgeStyle;fontSize=12;html=1;endArrow=blockThin;endFill=1;rounded=0;fontColor=#000000;" parent="1" source="XjajVI_ga6uDvfXqqqiE-43" target="XjajVI_ga6uDvfXqqqiE-6" edge="1">
          <mxGeometry width="160" relative="1" as="geometry">
            <mxPoint x="816.5" y="383" as="sourcePoint" />
            <mxPoint x="1026" y="383" as="targetPoint" />
            <Array as="points">
              <mxPoint x="864" y="383" />
            </Array>
          </mxGeometry>
        </mxCell>
        <mxCell id="XjajVI_ga6uDvfXqqqiE-50" value="confirmDelete(id)" style="edgeLabel;html=1;align=center;verticalAlign=middle;resizable=0;points=[];fontSize=15;fontColor=#000000;" parent="XjajVI_ga6uDvfXqqqiE-49" vertex="1" connectable="0">
          <mxGeometry x="0.0135" y="1" relative="1" as="geometry">
            <mxPoint x="1" y="-13" as="offset" />
          </mxGeometry>
        </mxCell>
        <mxCell id="XjajVI_ga6uDvfXqqqiE-51" value="" style="edgeStyle=elbowEdgeStyle;fontSize=12;html=1;endArrow=blockThin;endFill=1;rounded=0;fontColor=#000000;" parent="1" source="XjajVI_ga6uDvfXqqqiE-6" target="XjajVI_ga6uDvfXqqqiE-10" edge="1">
          <mxGeometry width="160" relative="1" as="geometry">
            <mxPoint x="1103" y="243" as="sourcePoint" />
            <mxPoint x="1263" y="243" as="targetPoint" />
            <Array as="points">
              <mxPoint x="1225" y="397" />
              <mxPoint x="1248" y="436" />
            </Array>
          </mxGeometry>
        </mxCell>
        <mxCell id="XjajVI_ga6uDvfXqqqiE-52" value="deleteTask(id)" style="edgeLabel;html=1;align=center;verticalAlign=middle;resizable=0;points=[];fontSize=15;fontColor=#000000;" parent="XjajVI_ga6uDvfXqqqiE-51" vertex="1" connectable="0">
          <mxGeometry x="-0.0294" relative="1" as="geometry">
            <mxPoint x="5" y="-12" as="offset" />
          </mxGeometry>
        </mxCell>
        <mxCell id="XjajVI_ga6uDvfXqqqiE-53" value="&lt;div style=&quot;text-align: left; font-size: 15px;&quot;&gt;&lt;/div&gt;&lt;span style=&quot;text-align: right;&quot;&gt;&lt;div style=&quot;text-align: left;&quot;&gt;&lt;span style=&quot;background-color: initial;&quot;&gt;[Suppression Valide&lt;/span&gt;&lt;span style=&quot;background-color: initial;&quot;&gt;]&lt;/span&gt;&lt;/div&gt;&lt;/span&gt;" style="text;html=1;strokeColor=none;fillColor=none;align=center;verticalAlign=middle;whiteSpace=wrap;rounded=0;fontSize=15;fontColor=#009900;" parent="1" vertex="1">
          <mxGeometry x="179.00430245535722" y="441" width="177.32034598214287" height="28" as="geometry" />
        </mxCell>
        <mxCell id="XjajVI_ga6uDvfXqqqiE-54" value="&lt;div style=&quot;text-align: left; font-size: 15px;&quot;&gt;&lt;/div&gt;&lt;span style=&quot;text-align: right;&quot;&gt;&lt;div style=&quot;text-align: left;&quot;&gt;&lt;span style=&quot;background-color: initial;&quot;&gt;[Suppression Invalide&lt;/span&gt;&lt;span style=&quot;background-color: initial;&quot;&gt;]&lt;/span&gt;&lt;/div&gt;&lt;/span&gt;" style="text;html=1;strokeColor=none;fillColor=none;align=center;verticalAlign=middle;whiteSpace=wrap;rounded=0;fontSize=15;fontColor=#CC0000;" parent="1" vertex="1">
          <mxGeometry x="178.00430245535722" y="568" width="177.32034598214287" height="28" as="geometry" />
        </mxCell>
        <mxCell id="XjajVI_ga6uDvfXqqqiE-55" style="rounded=0;orthogonalLoop=1;jettySize=auto;html=1;fontSize=15;fontColor=#000000;strokeColor=#000000;endArrow=none;endFill=0;dashed=1;entryX=1.001;entryY=0.682;entryDx=0;entryDy=0;entryPerimeter=0;" parent="1" source="XjajVI_ga6uDvfXqqqiE-12" target="XjajVI_ga6uDvfXqqqiE-3" edge="1">
          <mxGeometry relative="1" as="geometry">
            <Array as="points">
              <mxPoint x="588" y="691" />
            </Array>
            <mxPoint x="145.75925925925935" y="693.5395528683921" as="sourcePoint" />
            <mxPoint x="1836" y="688" as="targetPoint" />
          </mxGeometry>
        </mxCell>
        <mxCell id="XjajVI_ga6uDvfXqqqiE-56" value="" style="edgeStyle=elbowEdgeStyle;fontSize=12;html=1;endArrow=blockThin;endFill=1;rounded=0;fontColor=#000000;" parent="1" source="XjajVI_ga6uDvfXqqqiE-12" target="XjajVI_ga6uDvfXqqqiE-43" edge="1">
          <mxGeometry width="160" relative="1" as="geometry">
            <mxPoint x="145.89393939393926" y="754" as="sourcePoint" />
            <mxPoint x="806.5" y="754" as="targetPoint" />
            <Array as="points">
              <mxPoint x="428" y="484" />
              <mxPoint x="672.04" y="860" />
            </Array>
          </mxGeometry>
        </mxCell>
        <mxCell id="XjajVI_ga6uDvfXqqqiE-57" value="cliquer sur bouton confirmé" style="edgeLabel;html=1;align=center;verticalAlign=middle;resizable=0;points=[];fontSize=15;fontColor=#000000;" parent="XjajVI_ga6uDvfXqqqiE-56" vertex="1" connectable="0">
          <mxGeometry x="0.0775" y="-2" relative="1" as="geometry">
            <mxPoint x="-32" y="-18" as="offset" />
          </mxGeometry>
        </mxCell>
        <mxCell id="XjajVI_ga6uDvfXqqqiE-58" value="" style="fontSize=12;html=1;endArrow=blockThin;endFill=1;rounded=0;fontColor=#CC0000;" parent="1" source="XjajVI_ga6uDvfXqqqiE-43" target="XjajVI_ga6uDvfXqqqiE-7" edge="1">
          <mxGeometry width="160" relative="1" as="geometry">
            <mxPoint x="806.5" y="788" as="sourcePoint" />
            <mxPoint x="596" y="788" as="targetPoint" />
            <Array as="points">
              <mxPoint x="849" y="774" />
            </Array>
          </mxGeometry>
        </mxCell>
        <mxCell id="XjajVI_ga6uDvfXqqqiE-59" value="&lt;font color=&quot;#000000&quot;&gt;cancel()&lt;/font&gt;" style="edgeLabel;html=1;align=center;verticalAlign=middle;resizable=0;points=[];fontSize=15;fontColor=#CC0000;" parent="XjajVI_ga6uDvfXqqqiE-58" vertex="1" connectable="0">
          <mxGeometry x="-0.0013" y="1" relative="1" as="geometry">
            <mxPoint x="-2" y="-13" as="offset" />
          </mxGeometry>
        </mxCell>
        <mxCell id="XjajVI_ga6uDvfXqqqiE-60" value="disparaître modal" style="html=1;verticalAlign=bottom;endArrow=open;dashed=1;endSize=8;rounded=0;fontSize=15;fontColor=#000000;" parent="1" source="XjajVI_ga6uDvfXqqqiE-7" target="XjajVI_ga6uDvfXqqqiE-21" edge="1">
          <mxGeometry relative="1" as="geometry">
            <mxPoint x="591" y="779" as="sourcePoint" />
            <mxPoint x="359.5" y="805" as="targetPoint" />
            <Array as="points">
              <mxPoint x="472" y="805" />
            </Array>
          </mxGeometry>
        </mxCell>
        <mxCell id="XjajVI_ga6uDvfXqqqiE-61" value="" style="edgeStyle=elbowEdgeStyle;fontSize=12;html=1;endArrow=blockThin;endFill=1;rounded=0;fontColor=#000000;" parent="1" source="XjajVI_ga6uDvfXqqqiE-6" target="XjajVI_ga6uDvfXqqqiE-43" edge="1">
          <mxGeometry width="160" relative="1" as="geometry">
            <mxPoint x="758" y="421" as="sourcePoint" />
            <mxPoint x="918" y="421" as="targetPoint" />
            <Array as="points">
              <mxPoint x="975" y="521" />
            </Array>
          </mxGeometry>
        </mxCell>
        <mxCell id="XjajVI_ga6uDvfXqqqiE-62" value="closeModal(&#39;deleted&#39;)" style="edgeLabel;html=1;align=center;verticalAlign=middle;resizable=0;points=[];fontSize=15;fontColor=#000000;" parent="XjajVI_ga6uDvfXqqqiE-61" vertex="1" connectable="0">
          <mxGeometry x="-0.0076" relative="1" as="geometry">
            <mxPoint x="2" y="-12" as="offset" />
          </mxGeometry>
        </mxCell>
        <mxCell id="XjajVI_ga6uDvfXqqqiE-63" value="" style="edgeStyle=elbowEdgeStyle;fontSize=12;html=1;endArrow=blockThin;endFill=1;rounded=0;fontColor=#000000;" parent="1" source="XjajVI_ga6uDvfXqqqiE-6" target="XjajVI_ga6uDvfXqqqiE-43" edge="1">
          <mxGeometry width="160" relative="1" as="geometry">
            <mxPoint x="785" y="495" as="sourcePoint" />
            <mxPoint x="945" y="495" as="targetPoint" />
            <Array as="points">
              <mxPoint x="979" y="626" />
            </Array>
          </mxGeometry>
        </mxCell>
        <mxCell id="XjajVI_ga6uDvfXqqqiE-64" value="erreur" style="edgeLabel;html=1;align=center;verticalAlign=middle;resizable=0;points=[];fontSize=15;fontColor=#000000;" parent="XjajVI_ga6uDvfXqqqiE-63" vertex="1" connectable="0">
          <mxGeometry x="0.0389" relative="1" as="geometry">
            <mxPoint x="2" y="-12" as="offset" />
          </mxGeometry>
        </mxCell>
        <mxCell id="XjajVI_ga6uDvfXqqqiE-65" value="&lt;font color=&quot;#000000&quot;&gt;liste iterations et taches&lt;/font&gt;" style="html=1;verticalAlign=bottom;endArrow=open;dashed=1;endSize=8;rounded=0;fontSize=15;fontColor=#009900;strokeColor=#000000;" parent="1" source="XjajVI_ga6uDvfXqqqiE-21" target="XjajVI_ga6uDvfXqqqiE-12" edge="1">
          <mxGeometry relative="1" as="geometry">
            <mxPoint x="326.5" y="616" as="sourcePoint" />
            <mxPoint x="146.22222222222217" y="616" as="targetPoint" />
            <Array as="points">
              <mxPoint x="304" y="554" />
            </Array>
          </mxGeometry>
        </mxCell>
        <mxCell id="XjajVI_ga6uDvfXqqqiE-66" value="&lt;span style=&quot;color: rgb(0, 0, 0);&quot;&gt;liste iterations et taches&lt;/span&gt;" style="html=1;verticalAlign=bottom;endArrow=open;dashed=1;endSize=8;rounded=0;fontSize=15;fontColor=#009900;strokeColor=#000000;" parent="1" source="XjajVI_ga6uDvfXqqqiE-21" target="XjajVI_ga6uDvfXqqqiE-12" edge="1">
          <mxGeometry relative="1" as="geometry">
            <mxPoint x="349.5" y="822" as="sourcePoint" />
            <mxPoint x="145.89393939393926" y="822" as="targetPoint" />
            <Array as="points">
              <mxPoint x="290" y="820" />
            </Array>
          </mxGeometry>
        </mxCell>
        <mxCell id="XjajVI_ga6uDvfXqqqiE-67" value="&lt;span style=&quot;color: rgb(0, 0, 0);&quot;&gt;liste iterations et taches&lt;/span&gt;" style="html=1;verticalAlign=bottom;endArrow=open;dashed=1;endSize=8;rounded=0;fontSize=15;fontColor=#009900;strokeColor=#000000;" parent="1" source="XjajVI_ga6uDvfXqqqiE-21" target="XjajVI_ga6uDvfXqqqiE-12" edge="1">
          <mxGeometry relative="1" as="geometry">
            <mxPoint x="352.54" y="646" as="sourcePoint" />
            <mxPoint x="148.00153846153856" y="646" as="targetPoint" />
            <Array as="points">
              <mxPoint x="307.04" y="646" />
            </Array>
          </mxGeometry>
        </mxCell>
        <mxCell id="XjajVI_ga6uDvfXqqqiE-68" value="" style="edgeStyle=elbowEdgeStyle;fontSize=12;html=1;endArrow=none;endFill=1;rounded=0;fontColor=#000000;" parent="1" source="XjajVI_ga6uDvfXqqqiE-12" target="XjajVI_ga6uDvfXqqqiE-1" edge="1">
          <mxGeometry width="160" relative="1" as="geometry">
            <mxPoint x="144.96153846153857" y="366" as="sourcePoint" />
            <mxPoint x="806.5000000000005" y="366" as="targetPoint" />
            <Array as="points" />
          </mxGeometry>
        </mxCell>
        <mxCell id="XjajVI_ga6uDvfXqqqiE-69" value="" style="edgeStyle=elbowEdgeStyle;fontSize=12;html=1;endArrow=blockThin;endFill=1;rounded=0;fontColor=#000000;" parent="1" source="XjajVI_ga6uDvfXqqqiE-12" target="XjajVI_ga6uDvfXqqqiE-43" edge="1">
          <mxGeometry width="160" relative="1" as="geometry">
            <mxPoint x="155.89393939393904" y="764" as="sourcePoint" />
            <mxPoint x="816.5" y="764" as="targetPoint" />
            <Array as="points">
              <mxPoint x="757" y="764" />
              <mxPoint x="693" y="766" />
              <mxPoint x="457" y="831" />
              <mxPoint x="682.04" y="870" />
            </Array>
          </mxGeometry>
        </mxCell>
        <mxCell id="XjajVI_ga6uDvfXqqqiE-70" value="cliquer sur bouton annuler" style="edgeLabel;html=1;align=center;verticalAlign=middle;resizable=0;points=[];fontSize=15;fontColor=#000000;" parent="XjajVI_ga6uDvfXqqqiE-69" vertex="1" connectable="0">
          <mxGeometry x="0.0775" y="-2" relative="1" as="geometry">
            <mxPoint x="-32" y="-18" as="offset" />
          </mxGeometry>
        </mxCell>
        <mxCell id="t1JyWi2VBWXNS5GJvo4a-3" value="" style="edgeStyle=elbowEdgeStyle;fontSize=12;html=1;endArrow=blockThin;endFill=1;rounded=0;fontColor=#000000;" parent="1" source="XjajVI_ga6uDvfXqqqiE-12" target="XjajVI_ga6uDvfXqqqiE-43" edge="1">
          <mxGeometry width="160" relative="1" as="geometry">
            <mxPoint x="148.74" y="370" as="sourcePoint" />
            <mxPoint x="809.74" y="370" as="targetPoint" />
            <Array as="points">
              <mxPoint x="760.24" y="370" />
              <mxPoint x="696.24" y="372" />
              <mxPoint x="460.24" y="437" />
              <mxPoint x="685.28" y="476" />
            </Array>
          </mxGeometry>
        </mxCell>
        <mxCell id="t1JyWi2VBWXNS5GJvo4a-4" value="cliquer sur bouton valider" style="edgeLabel;html=1;align=center;verticalAlign=middle;resizable=0;points=[];fontSize=15;fontColor=#000000;" parent="t1JyWi2VBWXNS5GJvo4a-3" vertex="1" connectable="0">
          <mxGeometry x="0.0775" y="-2" relative="1" as="geometry">
            <mxPoint x="-32" y="-18" as="offset" />
          </mxGeometry>
        </mxCell>
      </root>
    </mxGraphModel>
  </diagram>
</mxfile>
